<mxfile host="app.diagrams.net" modified="2023-05-10T09:01:11.362Z" agent="Mozilla/5.0 (Macintosh; Intel Mac OS X 10_15_7) AppleWebKit/537.36 (KHTML, like Gecko) Chrome/113.0.0.0 Safari/537.36" version="21.2.9" etag="kFnl3yIXHmLIdbmTrtnE" type="github">
  <diagram name="Page-1" id="EjkLBJglvECr0d3TCHSq">
    <mxGraphModel>
      <root>
        <mxCell id="0" />
        <mxCell id="1" parent="0" />
      </root>
    </mxGraphModel>
  </diagram>
</mxfile>
